<?xml version="1.0" encoding="UTF-8"?>
<svg id="Layer_1" data-name="Layer 1" xmlns="http://www.w3.org/2000/svg" viewBox="0 0 134.3 90.38">
  <defs>
    <style>
      .cls-1 {
        fill: #231f20;
        stroke-width: 0px;
      }
    </style>
  </defs>
  <path class="cls-1" d="M12.97,73.44c10.54-7.02,20.61-14.75,30.1-23.13,4.61-4.07,9.08-8.3,13.41-12.67s8.48-8.72,12.25-13.48c4.2-5.3,7.78-11,9.92-17.45.88-2.64-3.45-4.55-4.57-1.93-8.19,19.17-15.03,38.88-20.36,59.03-1.49,5.63-2.86,11.29-4.12,16.98-.7,3.15,3.78,4.37,4.82,1.33,2.65-7.76-.81-15.76-5.9-21.65-5.36-6.2-12.81-9.77-19.79-13.77-3.95-2.26-7.78-4.7-11.02-7.91l-1.1,4.18c27.54-3.72,55.09-7.44,82.63-11.16,7.75-1.05,15.5-2.09,23.25-3.14l-1.93-4.57c-16.29,10.51-32.58,21.03-48.87,31.54-3.84,2.48-8.1,4.96-10.19,9.22-.45.92-.49,2.3.39,3.03,6.02,4.96,14.57,4.23,21.9,4.35,8.74.15,17.48.13,26.22-.06,4.95-.11,9.89-.27,14.84-.49,3.21-.14,3.22-5.14,0-5-16.47.72-33.06,1.05-49.54.34-3.35-.14-7.18-.46-9.88-2.68l.39,3.03c1.67-3.41,5.11-5.31,8.19-7.29,3.97-2.56,7.94-5.12,11.9-7.68l23.6-15.23,13.57-8.76c1.04-.67,1.53-1.96,1.02-3.12-.54-1.24-1.67-1.62-2.95-1.45-27.54,3.72-55.09,7.44-82.63,11.16-7.75,1.05-15.5,2.09-23.25,3.14-1.93.26-2.3,2.99-1.1,4.18,5.58,5.53,12.66,8.94,19.37,12.83,6.3,3.65,12.34,8.14,15.39,14.99,1.52,3.41,1.88,7.1.67,10.65l4.82,1.33c4.42-19.98,10.27-39.63,17.52-58.77,2.04-5.39,4.19-10.74,6.45-16.04l-4.57-1.93c-3.6,10.83-11.81,19.44-19.62,27.44-8.49,8.69-17.55,16.82-27.12,24.31-5.38,4.21-10.95,8.2-16.64,11.99-2.67,1.78-.16,6.11,2.52,4.32h0Z"/>
</svg>